<?xml version="1.0" standalone="no"?>
<!DOCTYPE svg PUBLIC "-//W3C//DTD SVG 20010904//EN"
 "http://www.w3.org/TR/2001/REC-SVG-20010904/DTD/svg10.dtd">
<svg version="1.0" xmlns="http://www.w3.org/2000/svg"
 width="1050.000000pt" height="1050.000000pt" viewBox="0 0 1050.000000 1050.000000"
 preserveAspectRatio="xMidYMid meet">
<metadata>
Created by potrace 1.11, written by Peter Selinger 2001-2013
</metadata>
<g transform="translate(0.000000,1050.000000) scale(0.100000,-0.100000)"
fill="#000000" stroke="none">
<path d="M3989 8517 c-102 -43 -173 -110 -218 -206 -23 -49 -26 -68 -26 -161
0 -99 2 -110 32 -171 39 -80 111 -150 191 -187 50 -24 69 -27 162 -27 99 0
110 2 171 32 80 39 150 111 187 191 24 50 27 69 27 162 0 93 -3 112 -27 162
-37 80 -107 152 -187 191 -58 28 -77 32 -161 35 -81 2 -103 -1 -151 -21z"/>
<path d="M6625 8289 c-131 -19 -255 -111 -317 -236 -31 -64 -33 -73 -33 -178
0 -102 2 -115 31 -175 17 -36 54 -92 83 -125 110 -125 118 -172 67 -429 -22
-113 -41 -185 -52 -197 -10 -11 -36 -24 -58 -29 -68 -18 -118 -42 -184 -92
-35 -27 -69 -48 -77 -48 -18 0 -633 743 -652 789 -14 33 -14 46 2 146 20 125
14 178 -30 266 -38 74 -89 125 -165 163 -88 44 -165 54 -251 31 -120 -30 -201
-96 -253 -205 -28 -59 -31 -74 -31 -160 0 -87 3 -101 32 -161 39 -79 102 -140
181 -177 47 -21 78 -27 172 -33 63 -3 127 -11 142 -17 29 -12 36 -20 453 -522
158 -190 293 -358 300 -375 7 -16 18 -63 24 -103 15 -100 51 -171 127 -252 42
-44 64 -76 64 -91 0 -37 -826 -2179 -850 -2203 -11 -13 -44 -30 -74 -39 -188
-60 -305 -231 -294 -432 4 -68 10 -95 41 -159 20 -43 37 -85 37 -93 0 -18 -56
-97 -93 -132 -28 -25 -21 -25 -165 0 -264 46 -545 -150 -601 -419 -70 -338
185 -652 529 -652 145 0 273 52 376 155 33 33 75 85 92 116 38 67 72 192 72
263 -1 109 -43 239 -106 323 -35 47 -31 76 22 144 26 32 52 60 58 60 6 1 70 2
141 3 129 1 132 1 205 38 86 42 132 86 188 178 21 35 50 72 63 82 26 18 1340
478 1368 478 9 0 43 -20 76 -44 113 -85 254 -115 383 -82 35 9 78 16 95 16 18
0 194 -49 392 -109 405 -123 380 -109 450 -242 43 -83 117 -151 186 -174 150
-50 309 10 385 147 26 48 29 61 29 148 0 84 -3 101 -27 146 -57 107 -156 168
-278 168 -71 1 -82 -2 -175 -48 -55 -27 -118 -51 -140 -53 -51 -4 -613 164
-628 188 -7 11 -3 34 16 80 33 84 42 160 26 234 -6 33 -13 78 -13 100 l-1 40
283 203 283 202 54 0 c30 0 84 -7 122 -16 131 -31 255 6 343 103 158 173 106
440 -108 545 -59 29 -76 33 -147 33 -65 -1 -91 -5 -137 -27 -123 -57 -191
-155 -209 -300 -13 -110 -23 -139 -62 -175 -59 -55 -555 -403 -575 -403 -11 0
-48 13 -82 29 -35 17 -87 33 -116 37 -29 3 -59 13 -65 20 -9 11 0 56 40 202
29 103 60 198 70 212 10 14 49 46 86 73 129 89 164 138 173 243 8 111 -40 205
-136 262 -41 24 -57 27 -132 27 -97 0 -141 -16 -198 -73 -53 -54 -77 -114 -76
-197 0 -61 6 -81 42 -156 29 -60 42 -100 42 -129 0 -40 -111 -461 -133 -505
-5 -11 -40 -48 -78 -83 -108 -99 -172 -256 -154 -376 5 -34 3 -45 -14 -60 -28
-25 -1240 -448 -1266 -442 -12 3 -31 27 -48 61 -31 64 -93 134 -154 177 -31
21 -43 36 -43 53 0 32 813 2153 833 2172 8 8 49 21 90 28 99 17 203 72 262
138 50 54 100 150 111 212 3 22 12 50 18 63 7 13 109 89 227 168 l214 146 141
-7 c132 -6 145 -5 193 16 107 45 181 170 168 280 -26 221 -289 326 -456 182
-49 -42 -73 -86 -96 -174 -33 -131 -38 -136 -236 -269 -125 -83 -184 -118
-194 -112 -8 4 -36 34 -62 67 -27 32 -77 80 -113 105 -38 27 -66 55 -68 67 -5
35 66 380 87 421 25 49 80 99 156 142 91 51 135 89 175 152 109 167 88 376
-51 523 -58 62 -147 110 -220 120 -24 4 -53 8 -64 9 -11 2 -47 -1 -80 -5z"/>
<path d="M2473 7455 c-78 -21 -130 -51 -191 -108 -63 -61 -97 -115 -123 -198
-90 -290 149 -588 455 -567 221 16 395 187 413 408 11 129 -35 249 -131 346
-116 116 -272 159 -423 119z"/>
<path d="M8713 7400 c-195 -40 -312 -250 -243 -434 29 -76 95 -147 169 -183
47 -23 69 -27 136 -27 67 0 89 4 136 27 199 96 251 352 104 515 -72 80 -199
123 -302 102z"/>
<path d="M3692 6769 c-112 -56 -151 -126 -161 -293 -4 -65 -13 -122 -22 -137
-8 -15 -160 -179 -338 -364 -231 -240 -336 -343 -365 -356 -26 -12 -64 -19
-104 -19 -56 0 -107 16 -463 144 -363 130 -405 148 -441 182 -46 45 -70 89
-87 159 -59 238 -304 378 -539 306 -114 -34 -206 -116 -261 -231 -23 -49 -26
-67 -26 -170 0 -104 3 -121 27 -173 31 -66 112 -156 172 -191 93 -54 231 -71
332 -41 27 8 79 32 115 54 82 49 168 75 221 67 51 -8 864 -302 903 -326 17
-10 48 -38 71 -62 43 -45 724 -1164 724 -1190 0 -8 -31 -47 -68 -86 -80 -83
-146 -202 -166 -301 -16 -82 -27 -89 -107 -72 -69 14 -115 35 -171 78 -33 25
-458 524 -496 581 -9 15 -18 63 -23 127 -12 153 -41 211 -131 260 -205 112
-428 -108 -320 -316 34 -67 95 -110 178 -128 151 -32 130 -15 379 -311 123
-148 230 -280 236 -293 23 -51 2 -69 -336 -278 -337 -209 -358 -219 -448 -205
-23 4 -82 26 -132 49 -80 37 -100 42 -181 45 -179 8 -319 -63 -415 -210 -52
-81 -73 -165 -67 -275 3 -77 9 -100 41 -166 78 -166 236 -267 417 -267 239 0
430 174 460 420 15 122 35 176 85 224 41 40 652 424 710 446 68 26 266 1 318
-40 13 -10 39 -49 57 -87 44 -88 170 -215 257 -261 242 -127 531 -84 724 108
226 226 249 561 55 817 -40 53 -89 96 -193 168 -13 9 -23 26 -23 38 0 12 50
173 112 356 84 251 119 343 140 367 15 17 66 50 113 73 97 48 144 96 175 178
42 112 15 239 -70 323 -151 152 -407 104 -495 -91 -24 -53 -27 -71 -23 -138 3
-63 10 -89 42 -155 21 -44 41 -96 43 -116 4 -29 -20 -111 -111 -381 -65 -189
-124 -351 -132 -361 -11 -12 -41 -19 -98 -25 -98 -9 -116 -7 -138 15 -9 9
-168 269 -354 576 -314 520 -338 563 -338 606 0 25 7 55 15 67 31 44 672 709
695 721 13 7 71 17 129 22 120 11 182 36 235 96 51 58 70 109 70 189 0 217
-215 351 -408 254z"/>
<path d="M9674 6480 c-109 -23 -214 -112 -253 -213 -90 -243 115 -496 371
-456 114 18 205 88 257 198 21 46 26 70 26 136 0 93 -27 164 -90 234 -71 78
-208 123 -311 101z"/>
<path d="M4765 6277 c-117 -46 -183 -133 -193 -253 -6 -82 17 -150 73 -212
172 -191 483 -83 502 173 9 116 -51 221 -159 274 -51 26 -73 31 -127 30 -36 0
-79 -6 -96 -12z"/>
<path d="M6492 5439 c-190 -94 -120 -382 93 -382 172 0 265 201 152 330 -63
71 -163 92 -245 52z"/>
<path d="M1182 4602 c-157 -56 -263 -192 -279 -357 -24 -258 220 -483 473
-436 269 49 419 333 305 576 -39 85 -112 157 -199 198 -87 41 -216 49 -300 19z"/>
<path d="M9977 4560 c-98 -25 -191 -100 -240 -195 -30 -56 -32 -67 -32 -160 0
-89 3 -106 28 -157 37 -75 98 -134 177 -172 58 -28 75 -31 155 -31 77 0 98 4
145 26 85 41 135 90 177 176 34 68 37 82 37 157 0 70 -4 91 -31 148 -59 125
-174 205 -310 213 -37 2 -85 0 -106 -5z"/>
<path d="M229 4267 c-60 -22 -105 -55 -132 -94 -37 -55 -47 -87 -47 -156 0
-200 201 -323 381 -232 187 95 184 369 -6 467 -49 26 -147 33 -196 15z"/>
<path d="M6075 3163 c-116 -42 -190 -107 -237 -209 -19 -41 -23 -66 -23 -154
0 -99 2 -109 32 -165 38 -73 100 -134 173 -171 77 -39 209 -46 291 -15 117 44
193 126 230 245 55 175 -28 364 -196 447 -82 40 -194 49 -270 22z"/>
<path d="M2834 2820 c-110 -23 -207 -98 -258 -201 -77 -154 -50 -315 74 -440
76 -77 144 -103 265 -104 82 0 96 3 156 32 258 128 294 471 66 643 -83 63
-204 91 -303 70z"/>
</g>
</svg>
